<svg width="40" height="40" viewBox="0 0 40 40" fill="none" xmlns="http://www.w3.org/2000/svg">
    <path fill-rule="evenodd" clip-rule="evenodd" d="M20.0001 0C13.1732 0 7.63897 5.53426 7.63897 12.3611V13.8889C7.63897 17.5566 7.14097 20.8078 6.38207 23.0846C5.99971 24.2316 5.58115 25.0397 5.19732 25.5267C4.91315 25.8873 4.74358 25.9602 4.70467 25.9723C3.79232 25.9818 3.05563 26.7243 3.05563 27.6389V27.9861C3.05563 28.9066 3.80183 29.6528 4.7223 29.6528H35.2779C36.1983 29.6528 36.9445 28.9066 36.9445 27.9861V27.6389C36.9445 26.7243 36.2078 25.9818 35.2955 25.9723C35.2566 25.9602 35.087 25.8873 34.8028 25.5267C34.419 25.0397 34.0004 24.2316 33.6181 23.0846C32.8592 20.8078 32.3612 17.5566 32.3612 13.8889V12.3611C32.3612 5.53426 26.8269 0 20.0001 0ZM4.70054 25.9735C4.69752 25.974 4.69603 25.9744 4.69603 25.9744C4.69604 25.9745 4.69667 25.9744 4.69791 25.9742C4.6986 25.974 4.69948 25.9738 4.70054 25.9735ZM10.9723 12.3611C10.9723 7.37521 15.0142 3.33333 20.0001 3.33333C24.986 3.33333 29.0279 7.37521 29.0279 12.3611V13.8889C29.0279 17.8151 29.5559 21.4389 30.4558 24.1387C30.7173 24.923 31.0204 25.661 31.3697 26.3195H8.63048C8.97973 25.661 9.2829 24.923 9.54434 24.1387C10.4443 21.4389 10.9723 17.8151 10.9723 13.8889V12.3611Z" fill="#95AE3A"/>
    <path d="M16.7567 33.1757C16.2094 32.4355 15.1658 32.2792 14.4257 32.8265C13.6856 33.3737 13.5292 34.4174 14.0765 35.1575C15.4633 37.0331 17.5584 38.3332 19.9999 38.3332C22.4414 38.3332 24.5365 37.0331 25.9234 35.1575C26.4706 34.4174 26.3143 33.3737 25.5742 32.8265C24.834 32.2792 23.7904 32.4355 23.2431 33.1757C22.3577 34.3732 21.1872 34.9999 19.9999 34.9999C18.8126 34.9999 17.6421 34.3732 16.7567 33.1757Z" fill="#95AE3A"/>
</svg>
